<svg width="309" height="208" viewBox="0 0 309 208" fill="none" xmlns="http://www.w3.org/2000/svg">
<g clip-path="url(#clip0)" filter="url(#filter0_d)">
<path d="M96.69 56.1192C78.2776 48.5239 64.1544 52.9835 62.3705 53.4741C60.9434 53.8666 47.4966 56.6058 34.304 73.4688C27.2863 82.112 15.6386 105.263 23.7747 133.331C31.9108 161.399 48.9582 173.781 57.1955 176.503C65.4327 179.224 73.9895 180.324 73.9895 180.324C73.9895 180.324 73.6578 183.292 75.7863 184.049C77.7364 184.855 80.0554 184.218 80.0554 184.218L114.841 174.651C114.841 174.651 117.16 174.013 118.421 172.324C119.681 170.634 118.051 168.206 118.051 168.206C118.051 168.206 124.786 162.709 130.463 156.161C136.14 149.612 144.245 130.312 136.822 102.048C129.043 73.8825 106.896 60.4092 96.69 56.1192Z" fill="#CD343C"/>
<path d="M115.498 76.2645C105.1 62.2452 92.9871 60.7813 87.4757 63.0643C82.321 65.2492 71.7163 68.5494 66.9491 70.0523C62.2618 71.1496 51.4109 73.5584 45.9116 74.4955C40.0063 75.3523 30.4049 82.9799 28.8509 100.286C27.297 117.593 33.303 133.779 47.8815 129.578C61.2112 125.72 66.9552 114.55 73.8566 110.35C75.0561 109.828 76.2555 109.307 77.861 108.865C79.4665 108.424 80.7644 108.258 82.0624 108.093C90.1454 108.172 100.991 114.779 114.241 111.327C128.998 107.077 125.846 90.1056 115.498 76.2645Z" fill="white"/>
<path d="M68.8239 104.637C68.8239 104.637 57.9737 112.608 52.2896 111.486C46.6055 110.364 42.9692 104.843 37.9251 106.038C34.1298 106.89 29.4675 110.858 33.0489 119.655C36.8764 129.344 51.3443 126.132 56.6894 122.552C62.213 118.923 68.8239 104.637 68.8239 104.637Z" fill="#44423D"/>
<path d="M61.9437 83.8965C61.9437 83.8965 54.3886 76.0004 44.0608 79.608C33.7821 83.3939 32.8853 92.6555 37.4991 94.0719C42.1129 95.4882 42.9363 88.7404 48.0231 85.6151C53.11 82.4898 61.9437 83.8965 61.9437 83.8965Z" fill="#44423D"/>
<path d="M62.0357 82.1449C62.0357 82.1449 59.6424 79.7342 57.6923 78.9279C55.7422 78.1216 54.0624 75.5147 56.086 73.8073C58.1589 72.2782 60.8718 73.0665 61.955 76.9883C62.6443 79.4841 62.0357 82.1449 62.0357 82.1449Z" fill="#44423D"/>
<path d="M82.8672 100.583C82.8672 100.583 96.2776 101.882 100.583 98.0127C104.839 93.965 105.177 87.5426 110.122 85.9906C113.819 84.7821 119.86 85.806 121.301 95.1919C122.988 105.469 108.914 110.107 102.486 109.765C95.8788 109.472 82.8672 100.583 82.8672 100.583Z" fill="#44423D"/>
<path d="M77.9986 79.4811C77.9986 79.4811 80.3839 68.6593 91.1549 66.656C101.877 64.4745 107.402 71.9699 104.216 75.7232C101.03 79.4765 96.8091 73.9241 90.836 73.8406C84.8628 73.7571 77.9986 79.4811 77.9986 79.4811Z" fill="#44423D"/>
<path d="M77.0202 78.0238C77.0202 78.0238 77.8379 74.73 79.0495 72.8624C80.3103 71.173 80.3653 67.8971 77.8001 67.6436C75.4132 67.341 73.3097 69.454 74.4421 73.5541C75.1315 76.0498 77.0202 78.0238 77.0202 78.0238Z" fill="#44423D"/>
<path d="M44.3648 99.4722C42.8384 93.9459 46.0179 88.0845 51.7263 86.5146C57.2563 84.9937 63.1253 88.1747 64.7008 93.8792C66.2271 99.4055 63.0476 105.267 57.3393 106.837C51.76 108.179 45.8911 104.998 44.3648 99.4722ZM45.4351 99.1778C46.8137 104.169 52.049 107.141 57.0438 105.767C62.0387 104.394 65.0091 99.165 63.6305 94.1736C62.2519 89.1822 57.0166 86.2105 52.0217 87.5842C47.0269 88.9579 44.0565 94.1864 45.4351 99.1778Z" fill="#44423D"/>
<path d="M80.8848 89.2366C79.3585 83.7103 82.538 77.8489 88.2463 76.279C93.7763 74.7581 99.6453 77.9391 101.221 83.6436C102.747 89.1699 99.5676 95.0313 93.8593 96.6012C88.1509 98.1712 82.4603 94.9411 80.8848 89.2366ZM93.5639 95.5317C98.5587 94.158 101.529 88.9294 100.151 83.938C98.7719 78.9466 93.5366 75.9749 88.5418 77.3486C83.5469 78.7223 80.5765 83.9508 81.9551 88.9422C83.383 94.1119 88.569 96.9054 93.5639 95.5317Z" fill="#44423D"/>
<path d="M60.7764 94.9586C61.7119 98.3456 59.6455 101.983 56.2562 102.915C52.8668 103.847 49.2249 101.78 48.2894 98.3929C47.3539 95.0058 49.4203 91.3686 52.8096 90.4364C56.199 89.5043 59.7917 91.3933 60.7764 94.9586Z" fill="#44423D"/>
<path d="M84.8095 88.1573C85.7449 91.5443 89.3869 93.6116 92.7762 92.6794C96.1656 91.7473 98.232 88.1101 97.2965 84.723C96.361 81.336 92.719 79.2687 89.3297 80.2008C85.762 81.1821 83.874 84.7702 84.8095 88.1573Z" fill="#44423D"/>
<path d="M53.5664 136.262C57.6693 135.133 59.0721 137.433 59.9584 140.642C60.8938 144.029 63.4541 153.298 67.0169 161.334C70.5305 169.19 74.2588 172.96 74.2588 172.96C74.2588 172.96 65.7569 168.585 58.0169 158.63C50.2278 148.497 46.2033 138.095 53.5664 136.262Z" fill="#F0B863"/>
<path d="M37.7698 140.223C40.7039 139.032 43.1586 140.275 45.103 144.535C47.1766 148.569 49.7797 155.909 56.9288 163.724C63.8995 171.59 68.0153 174.677 68.0153 174.677C68.0153 174.677 58.5108 171.537 49.6763 164.568C40.971 157.372 29.0967 143.567 37.7698 140.223Z" fill="#F0B863"/>
<path d="M112.742 119.796C108.688 121.102 108.614 123.616 109.55 127.003C110.485 130.39 113.046 139.66 114.111 148.382C115.127 156.925 113.91 162.247 113.91 162.247C113.91 162.247 118.965 154.143 120.452 141.459C121.939 128.774 120.006 117.606 112.742 119.796Z" fill="#F0B863"/>
<path d="M128.341 115.122C125.21 115.599 123.74 117.922 124.257 122.574C124.547 127.098 126.08 134.732 124.131 145.05C122.183 155.368 120.233 160.124 120.233 160.124C120.233 160.124 126.833 152.747 130.614 142.117C134.575 131.437 137.506 113.56 128.341 115.122Z" fill="#F0B863"/>
<path d="M70.6543 130.028C72.6166 129.488 73.7789 127.442 73.2373 125.481C72.6957 123.52 70.6471 122.358 68.6849 122.897C66.7226 123.437 65.5603 125.483 66.1019 127.444C66.6927 129.583 68.6921 130.568 70.6543 130.028ZM80.0618 143.936C78.973 143.468 77.3982 143.326 76.4078 143.215L75.8662 141.254C76.2044 140.394 76.6717 139.306 77.01 138.446C78.1352 134.876 79.2419 130.543 79.2419 130.543L74.3205 129.403C74.1607 130.214 74.1793 130.977 74.0194 131.788L63.673 134.633L64.0669 136.059L73.6998 133.41C71.8189 144.669 67.7604 154.991 67.7604 154.991C67.7604 154.991 70.2021 152.018 72.8343 147.65L77.8072 165.655L82.6236 164.33L77.4538 145.612C77.9091 145.871 78.4136 146.307 78.7397 146.793C80.1732 148.509 81.4283 150.273 81.4283 150.273L84.239 145.856C83.6546 145.825 82.2396 144.872 80.0618 143.936ZM100.248 121.122L99.9033 119.874L78.8537 125.663L79.1983 126.911L100.248 121.122ZM97.9433 137.1L101.689 136.07L98.7845 125.552L94.6445 125.156L95.1368 126.939L85.8607 129.49L81.3639 129.192L84.6628 141.136L88.7657 140.008L88.2241 138.047L97.5002 135.496L97.9433 137.1ZM87.8302 136.621L86.1069 130.381L95.383 127.83L97.1063 134.07L87.8302 136.621ZM93.6499 139.624C87.9415 141.193 84.762 147.055 86.3376 152.759C87.9131 158.464 93.7821 161.645 99.4904 160.075C105.199 158.505 108.378 152.644 106.803 146.939C105.049 141.284 99.1799 138.103 93.6499 139.624ZM88.7293 144.046C89.5534 142.86 90.6544 141.982 91.9831 141.233L94.2479 149.433L90.5018 150.463L88.7293 144.046ZM92.7667 158.663L90.9942 152.246L94.7403 151.216L97.0052 159.416C95.4796 159.452 94.0339 159.082 92.7667 158.663ZM100.146 140.906L101.919 147.323L98.1724 148.354L95.9076 140.153C97.4331 140.117 98.8295 140.309 100.146 140.906ZM101.059 158.109L98.7939 149.909L102.54 148.879L104.313 155.296C103.31 156.531 102.258 157.587 101.059 158.109Z" fill="#F0B863"/>
</g>
<g clip-path="url(#clip1)">
<path d="M205.704 175.776C237.699 195.633 280.312 132.966 286.736 121.221C293.062 109.378 293.54 90.9173 288.687 88.8421C283.834 86.7669 266.814 95.0517 266.814 95.0517L257.997 89.026C257.997 89.026 256.99 69.6767 253.226 67.3057C249.56 64.8362 225.905 71.8347 215.326 86.5391C204.746 101.243 197.047 126.709 195.766 133.718C194.485 140.529 185.695 163.329 205.704 175.776Z" fill="white"/>
<path d="M199.959 171.825C188.663 160.566 192.608 144.773 194.581 136.679C194.877 135.396 195.173 134.31 195.37 133.52C196.749 125.821 204.647 100.552 215.029 86.2427C225.312 71.6369 249.362 64.0462 253.523 66.8121C257.089 69.183 258.292 85.7682 258.492 88.7299L266.912 94.3606C269.189 93.2757 284.131 86.2732 288.885 88.2497C289.975 88.7438 290.867 89.8301 291.462 91.6073C293.646 97.9262 292.371 111.648 287.133 121.221C281.796 130.893 254.409 171.652 226.992 178.846C218.975 180.916 211.846 179.925 205.309 175.974C203.328 174.788 201.445 173.306 199.959 171.825ZM253.227 67.8979C253.127 67.7991 253.028 67.7004 252.929 67.6016C249.561 65.4283 226.203 72.3283 215.623 86.8353C205.34 101.046 197.542 126.216 196.163 133.718C196.064 134.606 195.768 135.692 195.472 136.975C193.204 145.958 188.666 164.712 205.902 175.382C212.143 179.234 219.173 180.126 226.695 178.155C240.948 174.41 255.192 160.99 264.587 150.432C274.873 138.787 283.276 126.254 286.143 121.023C291.183 111.844 292.557 98.2219 290.374 92.1004C289.877 90.6194 289.183 89.7306 288.391 89.3354C283.736 87.4577 267.111 95.3478 266.914 95.5452L266.716 95.5451L257.404 89.223L257.404 89.0255C257.201 83.8921 255.902 70.5645 253.227 67.8979Z" fill="#D8D9DA"/>
<path d="M221.11 132.149C221.11 132.149 226.646 123.859 225.155 117.442C223.566 110.926 220.99 108.753 218.905 102.532C218.905 102.532 215.444 106.973 216.241 112.304C217.038 117.636 221.598 125.14 221.11 132.149Z" fill="#465135"/>
<path d="M239.497 102.937C239.497 102.937 239.596 102.838 239.497 102.937C239.497 102.74 239.398 102.838 239.398 102.838C239.2 103.036 235.342 106.489 234.156 108.858C232.971 111.227 231.887 116.656 231.788 116.754C231.788 116.754 231.788 116.754 231.887 116.853L231.986 116.754C233.466 111.128 239.398 103.036 239.497 102.937Z" fill="#465135"/>
<path d="M234.844 103.034C234.843 102.837 234.745 102.936 234.745 102.936C233.854 103.626 231.678 105.205 230.887 106.587C230.393 107.475 229.407 111.818 229.111 113.299C229.111 113.496 229.012 113.595 229.111 113.694C229.111 113.694 229.111 113.694 229.21 113.792L229.309 113.694C229.309 113.694 229.309 113.496 229.408 113.2C230.492 108.166 234.745 103.133 234.844 103.034Z" fill="#465135"/>
<path d="M230.29 103.229C230.29 103.032 230.191 103.13 230.191 103.13C230.092 103.229 228.212 104.117 227.52 105.4C226.828 106.485 226.731 108.756 226.731 108.756C226.731 108.756 226.731 108.756 226.83 108.854L226.929 108.756C227.323 106.584 230.191 103.328 230.29 103.229Z" fill="#465135"/>
<path d="M226.626 102.141C226.626 102.141 225.141 102.24 224.845 102.931C224.548 103.621 225.143 104.411 225.143 104.411L225.241 104.312C225.241 103.128 226.626 102.141 226.626 102.141C226.824 102.338 226.725 102.24 226.626 102.141C226.725 102.24 226.626 102.141 226.626 102.141Z" fill="#465135"/>
<path d="M223.904 157.028C222.618 158.903 219.748 159.198 217.469 157.716C215.191 156.234 214.297 153.371 215.583 151.496C216.868 149.621 219.739 149.326 222.017 150.808C224.196 152.388 225.09 155.054 223.904 157.028Z" fill="#465135"/>
<path d="M285.824 97.4293C285.824 97.4293 290.98 106.119 280.604 127.141C277.54 133.162 275.753 127.633 274.958 123.486C274.162 119.34 272.374 112.429 268.802 103.542C267.512 100.284 269.095 99.2975 270.777 98.4098C272.063 97.7194 278.595 94.7607 281.069 94.2682C283.643 93.8745 284.831 93.6775 285.824 97.4293Z" fill="#F04D58"/>
<path d="M245.507 70.8563C245.507 70.8563 235.507 69.5685 220.178 87.4298C215.826 92.5612 221.667 92.0702 225.824 91.0849C229.981 90.0995 236.91 89.1154 246.612 88.9223C250.275 88.8252 250.372 86.9495 250.668 85.074C250.765 83.5933 250.957 76.4856 250.361 74.1161C249.665 71.4504 249.367 70.3644 245.507 70.8563Z" fill="#F04D58"/>
<path d="M220.649 171.341C220.649 171.341 222.631 173.513 226.097 174.403C229.068 175.194 232.039 175.788 236.291 170.755C240.543 165.722 234.407 167.694 233.814 168.089C233.22 168.483 231.34 169.174 230.154 172.332C229.068 175.589 222.037 172.526 220.649 171.341Z" fill="#F04D58"/>
<path d="M232.431 171.839C232.431 171.839 228.575 176.872 221.145 172.032C216.489 168.969 214.8 161.762 217.667 157.519C217.667 157.519 216.877 159.493 216.779 160.776C216.386 163.737 217.479 168.575 221.54 171.242C228.97 176.083 232.431 171.839 232.431 171.839Z" fill="#465135"/>
<path d="M203.809 160.277C203.809 160.277 201.433 159.486 199.351 156.82C197.369 154.45 195.188 151.487 198.252 145.664C201.217 139.742 201.817 146.06 201.619 146.85C201.422 147.64 201.721 149.516 199.149 151.884C196.577 154.252 202.225 159.486 203.809 160.277Z" fill="#F04D58"/>
<path d="M198.751 149.712C198.751 149.712 195.588 155.238 203.017 160.079C207.673 163.141 215.097 161.861 217.766 157.42C217.766 157.42 216.183 158.801 215.095 159.492C212.423 160.972 207.672 161.957 203.511 159.191C196.28 154.548 198.751 149.712 198.751 149.712Z" fill="#465135"/>
<path d="M239.732 143.609C239.732 143.609 245.169 135.22 251.702 134.039C258.334 132.956 261.305 134.339 267.839 133.947C267.839 133.947 265.171 138.981 259.925 140.262C254.679 141.543 245.867 140.255 239.732 143.609Z" fill="#465135"/>
<path d="M259.308 115.187C259.407 115.088 259.407 115.088 259.308 115.187C259.506 115.187 259.506 115.187 259.407 115.286C259.407 115.483 257.729 120.517 255.949 122.49C254.168 124.464 249.716 127.72 249.716 127.72C249.716 127.72 249.716 127.72 249.518 127.72C249.518 127.72 249.419 127.621 249.518 127.522C254.267 123.971 259.308 115.187 259.308 115.187Z" fill="#465135"/>
<path d="M260.995 119.433C261.094 119.334 261.193 119.433 260.995 119.433C261.193 119.433 261.193 119.433 261.193 119.433C260.897 120.519 260.305 123.282 259.316 124.467C258.624 125.355 255.062 127.92 253.875 128.709C253.776 128.808 253.677 128.906 253.578 129.005C253.578 129.005 253.578 129.005 253.38 129.005C253.38 129.005 253.281 128.906 253.38 128.808C253.38 128.808 253.479 128.709 253.776 128.61C258.129 125.453 261.094 119.531 260.995 119.433Z" fill="#465135"/>
<path d="M262.682 123.678C262.88 123.678 262.88 123.678 262.88 123.678C262.781 123.777 262.684 125.85 261.893 127.034C261.102 128.021 259.123 129.007 259.024 129.106C259.024 129.106 258.925 129.007 259.123 129.007C260.804 127.725 262.682 123.678 262.682 123.678Z" fill="#465135"/>
<path d="M265.061 126.641C265.061 126.641 265.458 128.023 265.062 128.615C264.667 129.208 263.577 128.911 263.577 128.911C263.577 128.911 263.577 128.911 263.478 128.812C263.478 128.812 263.478 128.812 263.577 128.714C264.666 128.22 264.962 126.739 265.061 126.641C264.961 126.542 264.961 126.542 265.061 126.641C265.159 126.542 265.159 126.542 265.061 126.641Z" fill="#465135"/>
</g>
<g clip-path="url(#clip2)" filter="url(#filter1_d)">
<path d="M147.077 29.3715C147.077 29.3715 146.45 26.4973 148.21 23.623C149.97 20.7488 150.097 19.1243 152.108 17.8746C153.994 16.625 156.759 16.5 160.026 18.8743C163.293 21.2487 166.308 26.8722 167.941 28.2468C169.575 29.6214 172.087 33.7453 177.994 34.4951C183.901 35.2449 190.564 31.8708 193.707 28.2468C196.85 24.6228 203.512 24.3728 206.15 26.3723C208.663 28.2468 211.553 32.9955 207.151 41.7431C202.749 50.4907 207.399 51.6154 206.265 61.4878C205.131 71.3601 202.49 76.1088 200.479 78.4831C198.467 80.8575 196.832 85.2313 199.596 88.1055C202.36 91.1047 205.876 101.227 205.372 104.601C204.743 107.85 202.604 114.598 202.101 115.723C202.101 115.723 208.886 121.596 207.123 132.718C205.36 143.84 201.337 149.339 200.331 151.338C199.325 153.338 197.058 165.834 183.485 163.46C169.912 160.961 163.88 155.837 157.345 154.837C150.81 153.838 135.727 155.962 126.678 152.713C117.63 149.339 119.265 145.965 122.033 136.717C123.92 130.219 117.008 126.97 120.028 117.223C124.431 103.101 132.725 106.476 134.989 101.602C136.876 97.603 132.603 97.353 129.964 93.9789C127.326 90.6049 124.185 85.1063 125.32 73.4845C126.455 61.8627 128.844 56.989 125.832 41.8681C122.821 26.6222 140.041 21.3737 147.077 29.3715Z" fill="white"/>
<path d="M170.447 53.9899C170.573 53.49 170.826 47.8665 164.668 45.8671C158.51 43.8676 154.738 48.6163 154.738 48.6163C154.738 48.6163 158.132 47.3667 160.269 47.3667C162.28 47.3667 165.045 47.7416 167.307 49.741C169.443 51.7405 170.447 53.9899 170.447 53.9899Z" fill="#67686A"/>
<path d="M182.261 55.7394C182.261 55.2395 183.771 49.741 190.181 49.741C196.717 49.6161 198.726 55.3645 198.726 55.3645C198.726 55.3645 195.836 53.1151 193.825 52.4903C191.815 51.8654 189.05 51.3656 186.41 52.7402C183.896 53.9899 182.261 55.7394 182.261 55.7394Z" fill="#67686A"/>
<path d="M160.015 54.8646C159.763 56.6142 156.872 57.6139 153.604 57.114C150.337 56.6142 147.824 54.8646 148.201 53.1151C148.453 51.3656 151.344 50.3659 154.612 50.8657C157.88 51.3656 160.267 53.1151 160.015 54.8646Z" fill="#F4CBD2"/>
<path d="M202.541 61.3817C202.805 59.6762 200.349 57.8863 197.056 57.3838C193.763 56.8812 190.88 57.8563 190.616 59.5618C190.352 61.2672 192.808 63.0571 196.101 63.5596C199.394 64.0622 202.278 63.0871 202.541 61.3817Z" fill="#F4CBD2"/>
<path d="M179.495 58.8634C179.117 61.2377 177.106 62.1125 174.718 61.7376C172.33 61.3627 170.697 59.9881 170.949 57.6137C171.075 56.614 173.086 56.3641 175.474 56.739C177.736 56.9889 179.621 57.7387 179.495 58.8634Z" fill="#DE926C"/>
<path d="M182.635 67.4858C180.121 67.9857 177.356 66.6111 176.351 65.7363C175.346 64.8615 174.089 63.4869 174.216 61.3625C173.712 63.3619 172.078 64.2367 170.821 64.8615C169.564 65.4864 166.547 65.8613 164.285 64.6116C162.024 63.3619 161.144 61.1125 161.144 61.1125C161.144 61.1125 160.64 65.7363 166.296 67.1109C166.296 67.1109 171.071 68.2356 173.838 63.9868C175.219 68.8604 180.12 69.2353 180.12 69.2353C185.902 69.6102 186.783 65.2364 186.783 65.2364C186.783 65.2364 185.274 67.1109 182.635 67.4858Z" fill="#DE926C"/>
<path d="M189.054 37.9941C189.054 37.9941 194.332 38.9938 196.343 39.8686C198.354 40.7433 201.621 42.118 202.374 45.742C202.374 45.742 206.02 42.9927 207.152 39.2438C208.284 35.4948 208.413 26.9971 203.134 26.3722C197.855 25.6225 194.209 31.121 192.7 32.1207C191.192 33.2454 189.054 35.7447 189.054 37.9941Z" fill="#D46252"/>
<path d="M166.683 34.6208C166.683 34.6208 161.279 33.996 159.142 34.2459C157.005 34.4959 153.486 34.7458 151.599 38.1199C151.599 38.1199 148.836 34.3709 148.962 30.4969C149.089 26.623 151.48 18.5002 156.758 19.375C162.037 20.2497 163.795 26.498 164.925 27.9976C166.056 29.4972 167.438 32.4964 166.683 34.6208Z" fill="#D46252"/>
<path d="M144.436 37.3701C144.436 37.3701 144.937 41.619 141.543 41.9939C141.543 41.9939 141.796 38.2449 144.436 37.3701Z" fill="#F4CBD2"/>
<path d="M138.529 35.4951C138.529 35.4951 139.534 36.3699 139.157 38.1194C138.779 39.8689 137.522 40.4938 137.522 40.4938C137.522 40.4938 137.145 39.494 137.271 37.8695C137.649 36.3699 138.529 35.4951 138.529 35.4951Z" fill="#F4CBD2"/>
<path d="M132.999 34.6201C132.999 34.6201 133.878 35.9947 133.375 37.9942C132.872 39.9937 133.123 40.4935 133.123 40.4935C133.123 40.4935 130.986 39.7437 131.615 37.3694C132.119 34.87 132.999 34.6201 132.999 34.6201Z" fill="#F4CBD2"/>
<path d="M126.964 40.1187C126.964 40.1187 126.963 43.1178 130.734 43.3678C134.63 43.7427 135.887 43.1178 137.772 43.4927C139.657 43.8676 141.291 44.4925 142.548 44.6174C143.805 44.7424 147.324 45.1173 147.577 40.8684C147.577 40.8684 147.073 43.7427 143.68 43.1178C140.286 42.493 140.412 41.8682 137.899 41.4933C135.385 41.1184 131.614 42.2431 129.854 41.9931C128.095 41.7432 127.215 40.8684 126.964 40.1187Z" fill="#F4CBD2"/>
<path d="M145.679 79.4829C145.679 79.4829 141.78 89.6052 151.58 100.852C161.38 112.099 185.01 110.1 190.92 100.227C195.573 92.4794 194.443 87.3558 194.443 87.3558C194.443 87.3558 153.219 84.7315 145.679 79.4829Z" fill="#A3BE6E"/>
<path d="M178.656 95.4103C179.361 90.8396 175.762 86.4967 170.617 85.7101C165.472 84.9234 160.729 87.991 160.023 92.5617C159.318 97.1324 162.917 101.475 168.062 102.262C173.207 103.049 177.95 99.981 178.656 95.4103Z" fill="#EEC58B"/>
<path d="M162.266 92.7292C162.266 92.7292 163.019 95.1042 169.304 95.7292C174.205 96.2292 176.091 93.9792 176.091 93.9792C176.091 93.9792 174.332 94.1042 170.058 93.6042C165.659 93.1042 163.523 93.3542 162.266 92.7292Z" fill="#DE926C"/>
<path d="M169.302 100.728C169.302 100.728 167.543 98.7284 168.172 97.3538C168.549 96.479 169.429 95.8542 169.932 95.6042C169.932 95.6042 169.932 96.354 170.183 96.9789C170.434 97.6037 170.56 98.3535 170.434 98.9783C170.182 99.6032 169.931 100.478 169.302 100.728Z" fill="#DE926C"/>
<path d="M137.251 104.726C137.251 104.726 136.999 107.225 140.643 111.099C142.15 112.724 144.16 117.723 144.159 118.597C144.159 118.597 145.794 116.348 143.031 111.099C141.146 107.725 139.387 108.35 137.251 104.726Z" fill="#F4CBD2"/>
<path d="M122.914 133.843C122.914 133.843 126.81 133.967 131.711 135.467C136.613 136.842 138.247 136.717 139.629 136.842C139.629 136.842 137.366 138.341 132.465 137.592C127.563 136.842 122.914 133.843 122.914 133.843Z" fill="#F4CBD2"/>
<path d="M127.185 141.466C127.185 141.466 124.796 143.091 124.921 145.965C125.046 148.839 126.302 149.839 127.308 150.214C127.434 150.089 126.303 147.214 127.185 141.466Z" fill="#F4CBD2"/>
<path d="M134.6 142.716C134.6 142.716 133.467 147.09 133.843 150.339C133.843 150.339 135.226 150.089 135.73 147.34C136.233 144.465 134.6 142.716 134.6 142.716Z" fill="#F4CBD2"/>
<path d="M140.13 144.215C140.13 144.215 138.871 148.839 139.75 151.213C139.75 151.213 141.008 150.214 141.385 147.964C141.889 145.715 140.884 144.84 140.13 144.215Z" fill="#F4CBD2"/>
<path d="M178.336 152.213C178.336 152.213 175.067 154.837 177.705 158.087C177.705 158.087 179.466 155.337 178.336 152.213Z" fill="#F4CBD2"/>
<path d="M185.374 151.463C185.374 151.463 182.482 154.962 183.989 159.086C183.989 159.086 187.007 155.587 185.374 151.463Z" fill="#F4CBD2"/>
<path d="M191.533 151.713C191.533 151.713 193.166 153.463 192.411 157.337C191.656 161.211 190.148 160.711 190.148 160.711C190.148 160.711 190.651 158.462 190.652 156.587C190.526 154.713 191.533 151.713 191.533 151.713Z" fill="#F4CBD2"/>
<path d="M185.377 144.091C185.377 144.091 187.765 143.216 191.41 143.841C195.054 144.466 195.305 146.466 196.059 146.841C196.059 146.841 192.917 146.091 191.032 145.841C189.272 145.466 185.377 144.091 185.377 144.091Z" fill="#F4CBD2"/>
<path d="M185.098 139.318C190.707 125.343 186.373 110.483 175.417 106.128C164.461 101.773 151.032 109.572 145.423 123.547C139.813 137.522 144.147 152.382 155.103 156.737C166.059 161.092 179.488 153.293 185.098 139.318Z" fill="#EEC58B"/>
<path d="M166.912 107.85C166.912 107.85 154.468 109.475 147.803 123.596C143.904 131.844 145.661 139.092 145.661 139.092C145.661 139.092 147.047 127.22 152.957 119.597C158.992 112.099 163.643 109.85 166.912 107.85Z" fill="#DE926C"/>
<path d="M167.149 153.713C167.149 153.713 176.828 150.213 181.356 140.591C186.009 130.969 184.629 123.721 184.629 123.721C184.629 123.721 182.237 135.093 178.968 140.216C175.698 145.215 172.806 149.714 167.149 153.713Z" fill="#DE926C"/>
<path d="M179.978 122.721C179.978 122.721 176.208 121.346 173.946 120.222C174.575 119.472 174.952 118.722 175.329 118.222C177.466 118.347 179.226 117.722 179.226 117.722C175.707 115.098 169.423 115.848 169.423 115.848C170.679 117.223 172.187 117.847 173.57 118.222C173.067 118.472 172.439 118.847 171.936 119.347C169.674 118.222 166.532 117.098 166.532 117.098C167.914 118.847 169.296 120.097 170.678 120.972C168.792 123.846 169.043 126.095 169.043 126.095C170.174 125.22 171.432 123.596 172.563 122.096C176.836 124.096 179.978 122.721 179.978 122.721Z" fill="#DE926C"/>
<path d="M166.528 129.719C172.309 132.718 173.566 131.844 173.566 131.844C164.77 124.846 161.125 125.595 161.125 125.595C163.01 126.595 163.763 127.72 164.769 128.595C162.004 128.595 159.867 129.719 159.867 129.719C162.254 131.469 164.265 131.219 165.522 130.469C167.91 131.844 168.16 134.968 167.909 135.343C167.783 135.843 166.777 136.218 164.641 136.218C162.504 136.218 159.613 136.342 159.613 136.342C162.126 138.342 169.29 139.592 170.045 135.843C170.675 132.593 167.03 130.594 166.025 130.094C166.277 129.969 166.402 129.844 166.528 129.719Z" fill="#DE926C"/>
<path d="M149.305 143.34C148.55 145.09 149.43 145.84 149.43 145.84C152.195 143.965 152.196 140.841 152.196 140.841C151.191 140.841 150.059 141.716 149.305 143.34Z" fill="#DE926C"/>
<path d="M159.486 143.216C159.611 142.841 159.611 142.591 159.612 142.216C164.261 144.59 167.026 144.215 167.026 144.215C167.026 144.215 166.147 143.965 162 141.216C157.853 138.467 152.072 136.842 152.072 136.842C154.585 139.092 156.973 140.716 158.858 141.841C158.606 142.091 158.355 142.341 158.103 142.716C155.213 141.716 153.202 141.841 153.202 141.841C153.83 142.091 155.464 142.966 157.349 143.965C156.468 145.465 156.342 146.965 156.342 147.589C156.216 147.589 155.965 147.464 155.839 147.464C153.703 147.214 153.954 146.965 153.954 146.59C153.954 146.34 152.823 147.464 154.205 148.714C155.587 149.964 158.352 150.589 159.861 149.339C159.861 149.339 158.981 148.589 157.724 147.964C158.353 146.965 158.856 145.965 159.108 144.84C161.747 146.34 164.134 148.089 164.26 148.714C164.511 149.964 162.374 151.588 162.374 151.588C162.374 151.588 166.396 150.714 165.894 148.214C165.517 146.59 162.25 144.465 159.486 143.216Z" fill="#DE926C"/>
<path d="M149.964 41.2432C149.964 41.2432 140.409 51.4904 144.552 67.736C144.552 67.736 141.538 60.6129 144.18 51.3654C146.319 43.7425 149.964 41.2432 149.964 41.2432Z" fill="#CED4DB"/>
<path d="M197.462 80.6075C197.462 80.6075 202.362 86.7308 194.443 88.6053C186.524 90.4798 174.836 88.4804 170.186 87.8555C165.41 87.1057 150.956 85.4812 145.428 80.1076C144.423 79.1079 143.795 75.7338 144.676 74.1093C145.43 72.8596 146.436 72.8596 146.436 72.8596C146.436 72.8596 149.325 77.1085 159.254 77.4834C163.025 77.6083 163.401 81.3573 169.308 81.9821C175.215 82.607 176.095 80.3576 180.494 81.1074C184.641 81.7322 194.695 85.4812 197.462 80.6075Z" fill="#D46252"/>
<path d="M144.928 69.6104C144.928 69.6104 143.293 73.9842 153.85 77.7331C157.117 78.8578 157.117 78.108 158.877 78.233C161.767 78.6079 163.526 82.2319 168.805 82.9817C174.083 83.7315 176.975 81.4821 180.871 81.982C184.892 82.4818 186.149 83.1067 187.909 83.3566C189.668 83.6065 193.69 83.6065 195.199 82.4818C195.199 82.4818 192.433 83.3566 190.297 82.8567C188.16 82.3569 183.259 80.4824 180.746 80.2325C178.232 79.9825 172.953 81.4821 169.308 80.9823C165.663 80.4824 163.402 77.4832 160.134 76.7334C156.992 75.9836 156.866 76.9833 154.604 76.4835C152.468 75.9836 145.178 73.8592 144.928 69.6104Z" fill="#F4CBD2"/>
<path d="M186.899 95.3541C186.899 95.3541 172.318 99.8528 175.708 111.975C179.098 124.096 187.519 122.597 190.787 121.597C194.181 120.722 197.324 118.348 199.209 118.723C201.094 119.098 195.194 95.8539 195.194 95.8539C195.194 95.8539 191.927 93.7295 186.899 95.3541Z" fill="white"/>
<path d="M195.32 95.7284C195.32 95.7284 186.901 90.9797 178.603 99.7273C169.802 108.85 176.838 115.973 178.22 117.722C179.602 119.597 185.634 124.096 190.159 122.346C194.684 120.597 198.33 118.472 199.461 118.597C199.461 118.597 197.199 118.472 190.285 121.097C185.886 122.721 180.232 117.223 179.352 115.973C178.473 114.848 175.08 111.349 176.967 105.726C178.854 100.102 183.254 97.6029 185.768 96.3532C188.157 95.2285 191.048 94.4788 195.32 95.7284Z" fill="#F4CBD2"/>
<path d="M190.287 115.973C190.287 115.973 190.035 118.722 184.127 119.847C184.127 119.722 184.128 117.348 190.287 115.973Z" fill="#F4CBD2"/>
<path d="M181.489 115.473C181.489 115.473 183.376 109.85 189.283 111.349C189.157 111.349 183.123 115.348 181.489 115.473Z" fill="#F4CBD2"/>
<path d="M181.366 107.475C181.366 107.475 177.845 112.724 176.839 112.849C176.839 112.849 176.463 110.974 177.846 109.225C179.229 107.475 181.366 107.475 181.366 107.475Z" fill="#F4CBD2"/>
</g>
<defs>
<filter id="filter0_d" x="-14" y="20.9214" width="187.729" height="197.089" filterUnits="userSpaceOnUse" color-interpolation-filters="sRGB">
<feFlood flood-opacity="0" result="BackgroundImageFix"/>
<feColorMatrix in="SourceAlpha" type="matrix" values="0 0 0 0 0 0 0 0 0 0 0 0 0 0 0 0 0 0 127 0"/>
<feOffset dy="3"/>
<feGaussianBlur stdDeviation="10"/>
<feColorMatrix type="matrix" values="0 0 0 0 0 0 0 0 0 0 0 0 0 0 0 0 0 0 0.05 0"/>
<feBlend mode="normal" in2="BackgroundImageFix" result="effect1_dropShadow"/>
<feBlend mode="normal" in="SourceGraphic" in2="effect1_dropShadow" result="shape"/>
</filter>
<filter id="filter1_d" x="99.1342" y="0" width="130.413" height="186.585" filterUnits="userSpaceOnUse" color-interpolation-filters="sRGB">
<feFlood flood-opacity="0" result="BackgroundImageFix"/>
<feColorMatrix in="SourceAlpha" type="matrix" values="0 0 0 0 0 0 0 0 0 0 0 0 0 0 0 0 0 0 127 0"/>
<feOffset dy="3"/>
<feGaussianBlur stdDeviation="10"/>
<feColorMatrix type="matrix" values="0 0 0 0 0 0 0 0 0 0 0 0 0 0 0 0 0 0 0.05 0"/>
<feBlend mode="normal" in2="BackgroundImageFix" result="effect1_dropShadow"/>
<feBlend mode="normal" in="SourceGraphic" in2="effect1_dropShadow" result="shape"/>
</filter>
<clipPath id="clip0">
<rect width="117.111" height="130.753" fill="white" transform="matrix(0.964199 -0.265179 0.266228 0.96391 6 68.9768)"/>
</clipPath>
<clipPath id="clip1">
<rect width="82.4028" height="122.111" fill="white" transform="matrix(0.708276 0.705936 -0.707953 0.706259 250.636 49.9299)"/>
</clipPath>
<clipPath id="clip2">
<rect width="90.3681" height="146.585" fill="white" transform="matrix(1 0 -0.000304827 1 119.179 17)"/>
</clipPath>
</defs>
</svg>
