<svg fill="none" xmlns="http://www.w3.org/2000/svg">
<g clip-path="url(#clip0)">
<path d="M23.5055 6.23867C23.2288 5.21053 22.4182 4.40011 21.3903 4.12326C19.5122 3.60928 11.9998 3.60928 11.9998 3.60928C11.9998 3.60928 4.48753 3.60928 2.60943 4.10367C1.60125 4.38034 0.770871 5.21072 0.4942 6.23867C0 8.11659 0 12.0112 0 12.0112C0 12.0112 0 15.9255 0.4942 17.7838C0.771054 18.8117 1.58148 19.6223 2.60961 19.8992C4.50731 20.4132 12 20.4132 12 20.4132C12 20.4132 19.5122 20.4132 21.3903 19.9188C22.4184 19.6421 23.2288 18.8315 23.5057 17.8036C23.9999 15.9255 23.9999 12.031 23.9999 12.031C23.9999 12.031 24.0197 8.11659 23.5055 6.23867Z" fill="white"/>
<path d="M9.60815 15.6091L15.8552 12.0111L9.60815 8.41306V15.6091Z" fill="#E20727"/>
</g>
<defs>
</defs>
</svg>
